<svg xmlns="http://www.w3.org/2000/svg" viewBox="0 0 64 64" role="img" aria-label="رواية للزهور">
  <rect width="64" height="64" rx="14" fill="#6F5B8E"/>
  <g fill="none" stroke="#FBF7F2" stroke-width="2.4" stroke-linecap="round" stroke-linejoin="round">
    <path d="M32 34c0-6 4-10 4-16 0 6 4 10 4 16a8 8 0 0 1-8 0z" fill="#E8C7D6" stroke="#FBF7F2"/>
    <path d="M32 34c0-6-4-10-4-16 0 6-4 10-4 16a8 8 0 0 0 8 0z" fill="#CBA9D6" stroke="#FBF7F2"/>
    <circle cx="32" cy="34" r="3.4" fill="#F4E4B8" stroke="#FBF7F2"/>
    <path d="M32 37.4V52"/>
    <path d="M32 44c-3.4-1-6-3.4-7-7 3.6.4 6.2 2 7 5z" fill="#8FA98A" stroke="#8FA98A"/>
  </g>
</svg>
